<svg id="visual" viewBox="0 0 960 540" width="960" height="540" xmlns="http://www.w3.org/2000/svg" xmlns:xlink="http://www.w3.org/1999/xlink" version="1.1"><defs><linearGradient id="grad1_0" x1="43.8%" y1="0%" x2="100%" y2="100%"><stop offset="14.444444444444446%" stop-color="#1c64f2" stop-opacity="1"></stop><stop offset="85.55555555555554%" stop-color="#1c64f2" stop-opacity="1"></stop></linearGradient></defs><defs><linearGradient id="grad1_1" x1="43.8%" y1="0%" x2="100%" y2="100%"><stop offset="14.444444444444446%" stop-color="#1c64f2" stop-opacity="1"></stop><stop offset="85.55555555555554%" stop-color="#2f3f82" stop-opacity="1"></stop></linearGradient></defs><defs><linearGradient id="grad1_2" x1="43.8%" y1="0%" x2="100%" y2="100%"><stop offset="14.444444444444446%" stop-color="#1d1d20" stop-opacity="1"></stop><stop offset="85.55555555555554%" stop-color="#2f3f82" stop-opacity="1"></stop></linearGradient></defs><defs><linearGradient id="grad2_0" x1="0%" y1="0%" x2="56.3%" y2="100%"><stop offset="14.444444444444446%" stop-color="#1c64f2" stop-opacity="1"></stop><stop offset="85.55555555555554%" stop-color="#1c64f2" stop-opacity="1"></stop></linearGradient></defs><defs><linearGradient id="grad2_1" x1="0%" y1="0%" x2="56.3%" y2="100%"><stop offset="14.444444444444446%" stop-color="#2f3f82" stop-opacity="1"></stop><stop offset="85.55555555555554%" stop-color="#1c64f2" stop-opacity="1"></stop></linearGradient></defs><defs><linearGradient id="grad2_2" x1="0%" y1="0%" x2="56.3%" y2="100%"><stop offset="14.444444444444446%" stop-color="#2f3f82" stop-opacity="1"></stop><stop offset="85.55555555555554%" stop-color="#1d1d20" stop-opacity="1"></stop></linearGradient></defs><g transform="translate(960, 0)"><path d="M0 135C-18.2 133.5 -36.3 131.9 -51.7 124.7C-67 117.5 -79.5 104.7 -91.9 91.9C-104.3 79.2 -116.6 66.6 -123.8 51.3C-131 36 -133 18 -135 0L0 0Z" fill="#292d4f"></path><path d="M0 90C-12.1 89 -24.2 87.9 -34.4 83.1C-44.7 78.3 -53 69.8 -61.3 61.3C-69.6 52.8 -77.8 44.4 -82.5 34.2C-87.3 24 -88.7 12 -90 0L0 0Z" fill="#2c51b8"></path><path d="M0 45C-6.1 44.5 -12.1 44 -17.2 41.6C-22.3 39.2 -26.5 34.9 -30.6 30.6C-34.8 26.4 -38.9 22.2 -41.3 17.1C-43.7 12 -44.3 6 -45 0L0 0Z" fill="#1c64f2"></path></g><g transform="translate(0, 540)"><path d="M0 -135C15.2 -127.8 30.4 -120.7 47.8 -115.5C65.2 -110.3 84.9 -107 95.5 -95.5C106.1 -83.9 107.6 -64 112.7 -46.7C117.8 -29.4 126.4 -14.7 135 0L0 0Z" fill="#292d4f"></path><path d="M0 -90C10.1 -85.2 20.3 -80.5 31.9 -77C43.5 -73.5 56.6 -71.4 63.6 -63.6C70.7 -55.9 71.8 -42.7 75.1 -31.1C78.5 -19.6 84.3 -9.8 90 0L0 0Z" fill="#2c51b8"></path><path d="M0 -45C5.1 -42.6 10.1 -40.2 15.9 -38.5C21.7 -36.8 28.3 -35.7 31.8 -31.8C35.4 -28 35.9 -21.3 37.6 -15.6C39.3 -9.8 42.1 -4.9 45 0L0 0Z" fill="#1c64f2"></path></g></svg>