<svg
          id="visual"
          viewBox="0 0 960 540"
          width="960"
          height="540"
          xmlns="http://www.w3.org/2000/svg"
          xmlns:xlink="http://www.w3.org/1999/xlink"
          version="1.1"
          preserveAspectRatio="xMidYMid meet"
        >
          <defs>
            <linearGradient id="grad1_0" x1="43.8%" y1="0%" x2="100%" y2="100%">
              <stop
                offset="14.444444444444446%"
                stop-color="#1c64f2"
                stop-opacity="1"
              ></stop>
              <stop
                offset="85.55555555555554%"
                stop-color="#1c64f2"
                stop-opacity="1"
              ></stop>
            </linearGradient>
          </defs>
          <defs>
            <linearGradient id="grad1_1" x1="43.8%" y1="0%" x2="100%" y2="100%">
              <stop
                offset="14.444444444444446%"
                stop-color="#1c64f2"
                stop-opacity="1"
              ></stop>
              <stop
                offset="85.55555555555554%"
                stop-color="#003f85"
                stop-opacity="1"
              ></stop>
            </linearGradient>
          </defs>
          <defs>
            <linearGradient id="grad1_2" x1="43.8%" y1="0%" x2="100%" y2="100%">
              <stop
                offset="14.444444444444446%"
                stop-color="#001220"
                stop-opacity="1"
              ></stop>
              <stop
                offset="85.55555555555554%"
                stop-color="#003f85"
                stop-opacity="1"
              ></stop>
            </linearGradient>
          </defs>
          <defs>
            <linearGradient id="grad2_0" x1="0%" y1="0%" x2="56.3%" y2="100%">
              <stop
                offset="14.444444444444446%"
                stop-color="#1c64f2"
                stop-opacity="1"
              ></stop>
              <stop
                offset="85.55555555555554%"
                stop-color="#1c64f2"
                stop-opacity="1"
              ></stop>
            </linearGradient>
          </defs>
          <defs>
            <linearGradient id="grad2_1" x1="0%" y1="0%" x2="56.3%" y2="100%">
              <stop
                offset="14.444444444444446%"
                stop-color="#003f85"
                stop-opacity="1"
              ></stop>
              <stop
                offset="85.55555555555554%"
                stop-color="#1c64f2"
                stop-opacity="1"
              ></stop>
            </linearGradient>
          </defs>
          <defs>
            <linearGradient id="grad2_2" x1="0%" y1="0%" x2="56.3%" y2="100%">
              <stop
                offset="14.444444444444446%"
                stop-color="#003f85"
                stop-opacity="1"
              ></stop>
              <stop
                offset="85.55555555555554%"
                stop-color="#001220"
                stop-opacity="1"
              ></stop>
            </linearGradient>
          </defs>
          <g transform="translate(960, 0)">
            <path
              d="M0 213C-18.6 183 -37.1 153.1 -58.6 141.4C-80 129.6 -104.3 136.1 -130.1 130.1C-155.9 124.1 -183.2 105.7 -197.7 81.9C-212.3 58.1 -214.1 29.1 -216 0L0 0Z"
              fill="#002950"
            ></path>
            <path
              d="M0 142C-12.4 122 -24.7 102.1 -39 94.2C-53.3 86.4 -69.5 90.7 -86.7 86.7C-103.9 82.7 -122.1 70.4 -131.8 54.6C-141.5 38.8 -142.8 19.4 -144 0L0 0Z"
              fill="#0053bc"
            ></path>
            <path
              d="M0 71C-6.2 61 -12.4 51 -19.5 47.1C-26.7 43.2 -34.8 45.4 -43.4 43.4C-52 41.4 -61.1 35.2 -65.9 27.3C-70.8 19.4 -71.4 9.7 -72 0L0 0Z"
              fill="#1c64f2"
            ></path>
          </g>
          <g transform="translate(0, 540)">
            <path
              d="M0 -164C31.9 -186.1 63.8 -208.1 81.9 -197.7C100 -187.3 104.4 -144.5 120.9 -120.9C137.4 -97.4 166 -93.1 183.9 -76.2C201.7 -59.2 208.9 -29.6 216 0L0 0Z"
              fill="#002950"
            ></path>
            <path
              d="M0 -109.3C21.3 -124 42.5 -138.7 54.6 -131.8C66.7 -124.9 69.6 -96.3 80.6 -80.6C91.6 -64.9 110.7 -62.1 122.6 -50.8C134.5 -39.5 139.2 -19.7 144 0L0 0Z"
              fill="#0053bc"
            ></path>
            <path
              d="M0 -54.7C10.6 -62 21.3 -69.4 27.3 -65.9C33.3 -62.4 34.8 -48.2 40.3 -40.3C45.8 -32.5 55.3 -31 61.3 -25.4C67.2 -19.7 69.6 -9.9 72 0L0 0Z"
              fill="#1c64f2"
            ></path>
          </g>
        </svg>