<svg id="visual" viewBox="0 0 960 540" width="960" height="540" xmlns="http://www.w3.org/2000/svg" xmlns:xlink="http://www.w3.org/1999/xlink" version="1.1"><g><g transform="translate(936 26)"><path d="M27.4 -9.2C31.1 2.7 26.9 16.9 15 27C3.2 37.1 -16.2 43.1 -25.8 36C-35.5 28.9 -35.3 8.8 -29.3 -6.2C-23.4 -21.1 -11.7 -30.9 0.1 -30.9C11.8 -30.9 23.6 -21.2 27.4 -9.2Z" fill="none" stroke="#1c64f2" stroke-width="1"></path></g><g transform="translate(620 92)"><path d="M41.4 -13.8C45.9 0.5 36.6 19 23.3 27.7C10 36.3 -7.3 35 -20.6 25.9C-34 16.8 -43.5 -0.2 -39.4 -13.9C-35.3 -27.6 -17.6 -38 0.4 -38.1C18.4 -38.3 36.9 -28.1 41.4 -13.8Z" fill="none" stroke="#1c64f2" stroke-width="1"></path></g><g transform="translate(706 478)"><path d="M39.9 -12.7C44.1 -0.2 34.5 17 19.3 28.5C4.1 40 -16.7 45.8 -28.5 37.6C-40.2 29.4 -42.9 7.3 -36.7 -8C-30.4 -23.4 -15.2 -31.9 1.3 -32.4C17.9 -32.8 35.8 -25.1 39.9 -12.7Z" fill="none" stroke="#1c64f2" stroke-width="1"></path></g><g transform="translate(856 268)"><path d="M20.8 -6C24.5 4.6 23.3 17.5 15.8 23.2C8.4 29 -5.3 27.6 -14.7 20.7C-24.1 13.8 -29.1 1.3 -26 -8.5C-22.8 -18.4 -11.4 -25.6 -1.4 -25.2C8.6 -24.7 17.1 -16.5 20.8 -6Z" fill="none" stroke="#1c64f2" stroke-width="1"></path></g><g transform="translate(376 483)"><path d="M39.2 -15.8C42.5 -2.8 30.9 11.9 16.3 22.5C1.7 33.1 -15.9 39.7 -26.3 32.9C-36.6 26.1 -39.7 6.1 -34.1 -10.1C-28.5 -26.2 -14.3 -38.6 1.9 -39.2C18 -39.8 36 -28.7 39.2 -15.8Z" fill="none" stroke="#1c64f2" stroke-width="1"></path></g><g transform="translate(15 198)"><path d="M31.2 -13.7C34.6 0.6 27.7 14.6 16.9 22.2C6.2 29.8 -8.6 30.9 -18.5 24C-28.4 17.1 -33.6 2.3 -29.8 -12.5C-25.9 -27.3 -12.9 -42 0.4 -42.1C13.8 -42.3 27.7 -27.9 31.2 -13.7Z" fill="none" stroke="#1c64f2" stroke-width="1"></path></g><g transform="translate(58 341)"><path d="M28.4 -8.8C33.4 6.1 31.7 23.7 22.4 30.3C13.1 36.9 -3.7 32.6 -16.3 23.2C-28.9 13.9 -37.4 -0.5 -33.9 -13.3C-30.5 -26.1 -15.3 -37.2 -1.8 -36.7C11.7 -36.1 23.4 -23.7 28.4 -8.8Z" fill="none" stroke="#1c64f2" stroke-width="1"></path></g></g></svg>